<mxfile host="app.diagrams.net" agent="Mozilla/5.0 (Macintosh; Intel Mac OS X 10_15_7) AppleWebKit/537.36 (KHTML, like Gecko) Chrome/131.0.0.0 Safari/537.36" version="25.0.3">
  <diagram id="z3vaUIrTjVOo2pbph_nI" name="Страница — 1">
    <mxGraphModel dx="6263" dy="2567" grid="1" gridSize="10" guides="1" tooltips="1" connect="1" arrows="1" fold="1" page="1" pageScale="1" pageWidth="827" pageHeight="1169" math="0" shadow="0">
      <root>
        <mxCell id="0" />
        <mxCell id="1" parent="0" />
        <mxCell id="cPYfwLs7gnMlUmzmh1kW-10" value="" style="edgeStyle=orthogonalEdgeStyle;rounded=0;orthogonalLoop=1;jettySize=auto;html=1;" edge="1" parent="1" source="cPYfwLs7gnMlUmzmh1kW-4" target="cPYfwLs7gnMlUmzmh1kW-9">
          <mxGeometry relative="1" as="geometry" />
        </mxCell>
        <mxCell id="cPYfwLs7gnMlUmzmh1kW-14" value="" style="edgeStyle=orthogonalEdgeStyle;rounded=0;orthogonalLoop=1;jettySize=auto;html=1;" edge="1" parent="1" source="cPYfwLs7gnMlUmzmh1kW-4" target="cPYfwLs7gnMlUmzmh1kW-13">
          <mxGeometry relative="1" as="geometry" />
        </mxCell>
        <mxCell id="cPYfwLs7gnMlUmzmh1kW-15" style="edgeStyle=orthogonalEdgeStyle;rounded=0;orthogonalLoop=1;jettySize=auto;html=1;" edge="1" parent="1" source="cPYfwLs7gnMlUmzmh1kW-4" target="cPYfwLs7gnMlUmzmh1kW-11">
          <mxGeometry relative="1" as="geometry" />
        </mxCell>
        <mxCell id="cPYfwLs7gnMlUmzmh1kW-16" style="edgeStyle=orthogonalEdgeStyle;rounded=0;orthogonalLoop=1;jettySize=auto;html=1;" edge="1" parent="1" source="cPYfwLs7gnMlUmzmh1kW-4" target="cPYfwLs7gnMlUmzmh1kW-12">
          <mxGeometry relative="1" as="geometry" />
        </mxCell>
        <mxCell id="cPYfwLs7gnMlUmzmh1kW-4" value="Безопасность данных" style="ellipse;whiteSpace=wrap;html=1;aspect=fixed;fontFamily=Verdana;fontStyle=1;fontSize=14;fillColor=#f5f5f5;strokeColor=#666666;fontColor=#333333;" vertex="1" parent="1">
          <mxGeometry x="351" y="522.5" width="125" height="125" as="geometry" />
        </mxCell>
        <mxCell id="cPYfwLs7gnMlUmzmh1kW-9" value="Публичные данные" style="whiteSpace=wrap;html=1;fontSize=13;fontFamily=Verdana;fillColor=#dae8fc;strokeColor=#6c8ebf;fontStyle=4;" vertex="1" parent="1">
          <mxGeometry x="322" y="330" width="183.5" height="60" as="geometry" />
        </mxCell>
        <mxCell id="cPYfwLs7gnMlUmzmh1kW-20" value="" style="rounded=0;orthogonalLoop=1;jettySize=auto;html=1;" edge="1" parent="1" source="cPYfwLs7gnMlUmzmh1kW-11" target="cPYfwLs7gnMlUmzmh1kW-19">
          <mxGeometry relative="1" as="geometry" />
        </mxCell>
        <mxCell id="cPYfwLs7gnMlUmzmh1kW-22" style="rounded=0;orthogonalLoop=1;jettySize=auto;html=1;" edge="1" parent="1" source="cPYfwLs7gnMlUmzmh1kW-11" target="cPYfwLs7gnMlUmzmh1kW-21">
          <mxGeometry relative="1" as="geometry" />
        </mxCell>
        <mxCell id="cPYfwLs7gnMlUmzmh1kW-24" style="rounded=0;orthogonalLoop=1;jettySize=auto;html=1;" edge="1" parent="1" source="cPYfwLs7gnMlUmzmh1kW-11" target="cPYfwLs7gnMlUmzmh1kW-23">
          <mxGeometry relative="1" as="geometry" />
        </mxCell>
        <mxCell id="cPYfwLs7gnMlUmzmh1kW-26" style="rounded=0;orthogonalLoop=1;jettySize=auto;html=1;" edge="1" parent="1" source="cPYfwLs7gnMlUmzmh1kW-11" target="cPYfwLs7gnMlUmzmh1kW-25">
          <mxGeometry relative="1" as="geometry" />
        </mxCell>
        <mxCell id="cPYfwLs7gnMlUmzmh1kW-11" value="Внутренние данные" style="whiteSpace=wrap;html=1;fontSize=13;fontFamily=Verdana;fillColor=#dae8fc;strokeColor=#6c8ebf;fontStyle=4;" vertex="1" parent="1">
          <mxGeometry x="620" y="555" width="183.5" height="60" as="geometry" />
        </mxCell>
        <mxCell id="cPYfwLs7gnMlUmzmh1kW-31" style="rounded=0;orthogonalLoop=1;jettySize=auto;html=1;" edge="1" parent="1" source="cPYfwLs7gnMlUmzmh1kW-12" target="cPYfwLs7gnMlUmzmh1kW-29">
          <mxGeometry relative="1" as="geometry" />
        </mxCell>
        <mxCell id="cPYfwLs7gnMlUmzmh1kW-32" style="rounded=0;orthogonalLoop=1;jettySize=auto;html=1;" edge="1" parent="1" source="cPYfwLs7gnMlUmzmh1kW-12" target="cPYfwLs7gnMlUmzmh1kW-27">
          <mxGeometry relative="1" as="geometry" />
        </mxCell>
        <mxCell id="cPYfwLs7gnMlUmzmh1kW-33" style="rounded=0;orthogonalLoop=1;jettySize=auto;html=1;" edge="1" parent="1" source="cPYfwLs7gnMlUmzmh1kW-12" target="cPYfwLs7gnMlUmzmh1kW-28">
          <mxGeometry relative="1" as="geometry" />
        </mxCell>
        <mxCell id="cPYfwLs7gnMlUmzmh1kW-34" style="rounded=0;orthogonalLoop=1;jettySize=auto;html=1;" edge="1" parent="1" source="cPYfwLs7gnMlUmzmh1kW-12" target="cPYfwLs7gnMlUmzmh1kW-30">
          <mxGeometry relative="1" as="geometry" />
        </mxCell>
        <mxCell id="cPYfwLs7gnMlUmzmh1kW-12" value="Конфиденциальные данные" style="whiteSpace=wrap;html=1;fontSize=13;fontFamily=Verdana;fillColor=#dae8fc;strokeColor=#6c8ebf;fontStyle=4;" vertex="1" parent="1">
          <mxGeometry x="10" y="555" width="183.5" height="60" as="geometry" />
        </mxCell>
        <mxCell id="cPYfwLs7gnMlUmzmh1kW-37" style="rounded=0;orthogonalLoop=1;jettySize=auto;html=1;" edge="1" parent="1" source="cPYfwLs7gnMlUmzmh1kW-13" target="cPYfwLs7gnMlUmzmh1kW-36">
          <mxGeometry relative="1" as="geometry" />
        </mxCell>
        <mxCell id="cPYfwLs7gnMlUmzmh1kW-38" style="rounded=0;orthogonalLoop=1;jettySize=auto;html=1;" edge="1" parent="1" source="cPYfwLs7gnMlUmzmh1kW-13" target="cPYfwLs7gnMlUmzmh1kW-35">
          <mxGeometry relative="1" as="geometry" />
        </mxCell>
        <mxCell id="cPYfwLs7gnMlUmzmh1kW-13" value="Секретные данные" style="whiteSpace=wrap;html=1;fontSize=13;fontFamily=Verdana;fillColor=#dae8fc;strokeColor=#6c8ebf;fontStyle=4;" vertex="1" parent="1">
          <mxGeometry x="353.75" y="780" width="120" height="60" as="geometry" />
        </mxCell>
        <mxCell id="cPYfwLs7gnMlUmzmh1kW-61" style="edgeStyle=orthogonalEdgeStyle;rounded=0;orthogonalLoop=1;jettySize=auto;html=1;" edge="1" parent="1" source="cPYfwLs7gnMlUmzmh1kW-19" target="cPYfwLs7gnMlUmzmh1kW-59">
          <mxGeometry relative="1" as="geometry" />
        </mxCell>
        <mxCell id="cPYfwLs7gnMlUmzmh1kW-19" value="Данные о недвижимости фонда среди всего объема онлайн-трафика" style="whiteSpace=wrap;html=1;fontSize=12;fontFamily=Verdana;fillColor=#d5e8d4;strokeColor=#82b366;fontStyle=0;" vertex="1" parent="1">
          <mxGeometry x="870" y="330" width="236.5" height="60" as="geometry" />
        </mxCell>
        <mxCell id="cPYfwLs7gnMlUmzmh1kW-60" style="edgeStyle=orthogonalEdgeStyle;rounded=0;orthogonalLoop=1;jettySize=auto;html=1;entryX=0;entryY=0.5;entryDx=0;entryDy=0;" edge="1" parent="1" source="cPYfwLs7gnMlUmzmh1kW-21" target="cPYfwLs7gnMlUmzmh1kW-58">
          <mxGeometry relative="1" as="geometry" />
        </mxCell>
        <mxCell id="cPYfwLs7gnMlUmzmh1kW-21" value="История выполнения ремонтов и планы ремонтов" style="whiteSpace=wrap;html=1;fontSize=12;fontFamily=Verdana;fillColor=#d5e8d4;strokeColor=#82b366;fontStyle=0;" vertex="1" parent="1">
          <mxGeometry x="870" y="480" width="236.5" height="60" as="geometry" />
        </mxCell>
        <mxCell id="cPYfwLs7gnMlUmzmh1kW-55" style="edgeStyle=orthogonalEdgeStyle;rounded=0;orthogonalLoop=1;jettySize=auto;html=1;entryX=0;entryY=0.5;entryDx=0;entryDy=0;" edge="1" parent="1" source="cPYfwLs7gnMlUmzmh1kW-23" target="cPYfwLs7gnMlUmzmh1kW-54">
          <mxGeometry relative="1" as="geometry" />
        </mxCell>
        <mxCell id="cPYfwLs7gnMlUmzmh1kW-23" value="Данные от управляющей компании" style="whiteSpace=wrap;html=1;fontSize=12;fontFamily=Verdana;fillColor=#d5e8d4;strokeColor=#82b366;fontStyle=0;" vertex="1" parent="1">
          <mxGeometry x="870" y="630" width="236.5" height="60" as="geometry" />
        </mxCell>
        <mxCell id="cPYfwLs7gnMlUmzmh1kW-53" style="edgeStyle=orthogonalEdgeStyle;rounded=0;orthogonalLoop=1;jettySize=auto;html=1;" edge="1" parent="1" source="cPYfwLs7gnMlUmzmh1kW-25" target="cPYfwLs7gnMlUmzmh1kW-52">
          <mxGeometry relative="1" as="geometry" />
        </mxCell>
        <mxCell id="cPYfwLs7gnMlUmzmh1kW-25" value="Логи" style="whiteSpace=wrap;html=1;fontSize=12;fontFamily=Verdana;fillColor=#d5e8d4;strokeColor=#82b366;fontStyle=0;" vertex="1" parent="1">
          <mxGeometry x="870" y="780" width="236.5" height="60" as="geometry" />
        </mxCell>
        <mxCell id="cPYfwLs7gnMlUmzmh1kW-48" style="edgeStyle=orthogonalEdgeStyle;rounded=0;orthogonalLoop=1;jettySize=auto;html=1;" edge="1" parent="1" source="cPYfwLs7gnMlUmzmh1kW-27" target="cPYfwLs7gnMlUmzmh1kW-46">
          <mxGeometry relative="1" as="geometry">
            <Array as="points">
              <mxPoint x="-520" y="660" />
            </Array>
          </mxGeometry>
        </mxCell>
        <mxCell id="cPYfwLs7gnMlUmzmh1kW-27" value="&lt;div&gt;Информация о недвижимости&lt;/div&gt;" style="whiteSpace=wrap;html=1;fontSize=12;fontFamily=Verdana;fillColor=#d5e8d4;strokeColor=#82b366;fontStyle=0;" vertex="1" parent="1">
          <mxGeometry x="-290" y="630" width="236.5" height="60" as="geometry" />
        </mxCell>
        <mxCell id="cPYfwLs7gnMlUmzmh1kW-49" style="edgeStyle=orthogonalEdgeStyle;rounded=0;orthogonalLoop=1;jettySize=auto;html=1;" edge="1" parent="1" source="cPYfwLs7gnMlUmzmh1kW-28" target="cPYfwLs7gnMlUmzmh1kW-44">
          <mxGeometry relative="1" as="geometry">
            <Array as="points">
              <mxPoint x="-520" y="360" />
            </Array>
          </mxGeometry>
        </mxCell>
        <mxCell id="cPYfwLs7gnMlUmzmh1kW-28" value="Персональные данные клиентов" style="whiteSpace=wrap;html=1;fontSize=12;fontFamily=Verdana;fillColor=#d5e8d4;strokeColor=#82b366;fontStyle=0;" vertex="1" parent="1">
          <mxGeometry x="-290" y="330" width="236.5" height="60" as="geometry" />
        </mxCell>
        <mxCell id="cPYfwLs7gnMlUmzmh1kW-47" style="edgeStyle=orthogonalEdgeStyle;rounded=0;orthogonalLoop=1;jettySize=auto;html=1;" edge="1" parent="1" source="cPYfwLs7gnMlUmzmh1kW-29" target="cPYfwLs7gnMlUmzmh1kW-46">
          <mxGeometry relative="1" as="geometry">
            <Array as="points">
              <mxPoint x="-520" y="810" />
            </Array>
          </mxGeometry>
        </mxCell>
        <mxCell id="cPYfwLs7gnMlUmzmh1kW-29" value="Сделки" style="whiteSpace=wrap;html=1;fontSize=12;fontFamily=Verdana;fillColor=#d5e8d4;strokeColor=#82b366;fontStyle=0;" vertex="1" parent="1">
          <mxGeometry x="-290" y="780" width="236.5" height="60" as="geometry" />
        </mxCell>
        <mxCell id="cPYfwLs7gnMlUmzmh1kW-45" style="edgeStyle=orthogonalEdgeStyle;rounded=0;orthogonalLoop=1;jettySize=auto;html=1;" edge="1" parent="1" source="cPYfwLs7gnMlUmzmh1kW-30" target="cPYfwLs7gnMlUmzmh1kW-44">
          <mxGeometry relative="1" as="geometry">
            <Array as="points">
              <mxPoint x="-520" y="520" />
            </Array>
          </mxGeometry>
        </mxCell>
        <mxCell id="cPYfwLs7gnMlUmzmh1kW-30" value="Данные учетных записей пользователей" style="whiteSpace=wrap;html=1;fontSize=12;fontFamily=Verdana;fillColor=#d5e8d4;strokeColor=#82b366;fontStyle=0;" vertex="1" parent="1">
          <mxGeometry x="-290" y="480" width="236.5" height="60" as="geometry" />
        </mxCell>
        <mxCell id="cPYfwLs7gnMlUmzmh1kW-41" style="edgeStyle=orthogonalEdgeStyle;rounded=0;orthogonalLoop=1;jettySize=auto;html=1;entryX=0.5;entryY=1;entryDx=0;entryDy=0;" edge="1" parent="1" source="cPYfwLs7gnMlUmzmh1kW-35" target="cPYfwLs7gnMlUmzmh1kW-39">
          <mxGeometry relative="1" as="geometry">
            <Array as="points">
              <mxPoint x="600" y="1130" />
              <mxPoint x="416" y="1130" />
            </Array>
          </mxGeometry>
        </mxCell>
        <mxCell id="cPYfwLs7gnMlUmzmh1kW-35" value="Записи об оплатах услуг ЖКХ" style="whiteSpace=wrap;html=1;fontSize=12;fontFamily=Verdana;fillColor=#d5e8d4;strokeColor=#82b366;fontStyle=0;" vertex="1" parent="1">
          <mxGeometry x="476" y="940" width="236.5" height="60" as="geometry" />
        </mxCell>
        <mxCell id="cPYfwLs7gnMlUmzmh1kW-40" style="edgeStyle=orthogonalEdgeStyle;rounded=0;orthogonalLoop=1;jettySize=auto;html=1;" edge="1" parent="1" source="cPYfwLs7gnMlUmzmh1kW-36" target="cPYfwLs7gnMlUmzmh1kW-39">
          <mxGeometry relative="1" as="geometry">
            <Array as="points">
              <mxPoint x="240" y="1130" />
            </Array>
          </mxGeometry>
        </mxCell>
        <mxCell id="cPYfwLs7gnMlUmzmh1kW-36" value="Данные об оплатах сделок" style="whiteSpace=wrap;html=1;fontSize=12;fontFamily=Verdana;fillColor=#d5e8d4;strokeColor=#82b366;fontStyle=0;" vertex="1" parent="1">
          <mxGeometry x="114.5" y="940" width="236.5" height="60" as="geometry" />
        </mxCell>
        <mxCell id="cPYfwLs7gnMlUmzmh1kW-43" style="edgeStyle=orthogonalEdgeStyle;rounded=0;orthogonalLoop=1;jettySize=auto;html=1;" edge="1" parent="1" source="cPYfwLs7gnMlUmzmh1kW-39" target="cPYfwLs7gnMlUmzmh1kW-42">
          <mxGeometry relative="1" as="geometry">
            <Array as="points">
              <mxPoint x="416" y="1210" />
              <mxPoint x="416" y="1210" />
            </Array>
          </mxGeometry>
        </mxCell>
        <mxCell id="cPYfwLs7gnMlUmzmh1kW-39" value="-Критический- Утечка данных" style="whiteSpace=wrap;html=1;fontSize=13;fontFamily=Verdana;fillColor=#f8cecc;strokeColor=#b85450;fontStyle=2;" vertex="1" parent="1">
          <mxGeometry x="356" y="1100" width="120" height="60" as="geometry" />
        </mxCell>
        <mxCell id="cPYfwLs7gnMlUmzmh1kW-42" value="Утечка/кража финансовой информации потенциально приводит к финансовым потерям компании и собственников компании" style="whiteSpace=wrap;html=1;fontSize=10;fontFamily=Verdana;fontStyle=0;" vertex="1" parent="1">
          <mxGeometry x="236" y="1260" width="360" height="60" as="geometry" />
        </mxCell>
        <mxCell id="cPYfwLs7gnMlUmzmh1kW-57" style="edgeStyle=orthogonalEdgeStyle;rounded=0;orthogonalLoop=1;jettySize=auto;html=1;" edge="1" parent="1" source="cPYfwLs7gnMlUmzmh1kW-44" target="cPYfwLs7gnMlUmzmh1kW-56">
          <mxGeometry relative="1" as="geometry" />
        </mxCell>
        <mxCell id="cPYfwLs7gnMlUmzmh1kW-44" value="-Критический- Утечка данных" style="whiteSpace=wrap;html=1;fontSize=13;fontFamily=Verdana;fillColor=#f8cecc;strokeColor=#b85450;fontStyle=2;" vertex="1" parent="1">
          <mxGeometry x="-580" y="410" width="120" height="60" as="geometry" />
        </mxCell>
        <mxCell id="cPYfwLs7gnMlUmzmh1kW-51" style="edgeStyle=orthogonalEdgeStyle;rounded=0;orthogonalLoop=1;jettySize=auto;html=1;" edge="1" parent="1" source="cPYfwLs7gnMlUmzmh1kW-46" target="cPYfwLs7gnMlUmzmh1kW-50">
          <mxGeometry relative="1" as="geometry" />
        </mxCell>
        <mxCell id="cPYfwLs7gnMlUmzmh1kW-46" value="-Значительный- Утечка данных" style="whiteSpace=wrap;html=1;fontSize=13;fontFamily=Verdana;fillColor=#ffe6cc;strokeColor=#d79b00;fontStyle=2;" vertex="1" parent="1">
          <mxGeometry x="-580" y="706" width="120" height="60" as="geometry" />
        </mxCell>
        <mxCell id="cPYfwLs7gnMlUmzmh1kW-50" value="Потеря данной информации может привести к с&lt;span style=&quot;background-color: initial;&quot;&gt;рывам&lt;/span&gt;&lt;span style=&quot;background-color: initial;&quot;&gt;&amp;nbsp;сделок из-за потери ценной информации&lt;/span&gt;" style="whiteSpace=wrap;html=1;fontSize=10;fontFamily=Verdana;fontStyle=0;" vertex="1" parent="1">
          <mxGeometry x="-1090" y="706" width="350" height="60" as="geometry" />
        </mxCell>
        <mxCell id="cPYfwLs7gnMlUmzmh1kW-63" style="edgeStyle=orthogonalEdgeStyle;rounded=0;orthogonalLoop=1;jettySize=auto;html=1;" edge="1" parent="1" source="cPYfwLs7gnMlUmzmh1kW-52" target="cPYfwLs7gnMlUmzmh1kW-62">
          <mxGeometry relative="1" as="geometry" />
        </mxCell>
        <mxCell id="cPYfwLs7gnMlUmzmh1kW-52" value="-Незначительный-&lt;div&gt;Данные плохого качества&lt;/div&gt;" style="whiteSpace=wrap;html=1;fontSize=13;fontFamily=Verdana;fillColor=#fff2cc;strokeColor=#d6b656;fontStyle=2;" vertex="1" parent="1">
          <mxGeometry x="1260" y="780" width="120" height="60" as="geometry" />
        </mxCell>
        <mxCell id="cPYfwLs7gnMlUmzmh1kW-65" style="edgeStyle=orthogonalEdgeStyle;rounded=0;orthogonalLoop=1;jettySize=auto;html=1;" edge="1" parent="1" source="cPYfwLs7gnMlUmzmh1kW-54" target="cPYfwLs7gnMlUmzmh1kW-64">
          <mxGeometry relative="1" as="geometry" />
        </mxCell>
        <mxCell id="cPYfwLs7gnMlUmzmh1kW-54" value="-Значительный-&lt;div&gt;Искажение данных&lt;/div&gt;" style="whiteSpace=wrap;html=1;fontSize=13;fontFamily=Verdana;fillColor=#ffe6cc;strokeColor=#d79b00;fontStyle=2;" vertex="1" parent="1">
          <mxGeometry x="1260" y="630" width="120" height="60" as="geometry" />
        </mxCell>
        <mxCell id="cPYfwLs7gnMlUmzmh1kW-56" value="Потеря данной информации может привести к:&lt;div&gt;1) Потеря доверия клиентов и штрафы&lt;/div&gt;&lt;div&gt;2) Использованию данных для проведения незаконных действий с недвижимостью&lt;/div&gt;" style="whiteSpace=wrap;html=1;fontSize=10;fontFamily=Verdana;fontStyle=0;" vertex="1" parent="1">
          <mxGeometry x="-1090" y="410" width="350" height="60" as="geometry" />
        </mxCell>
        <mxCell id="cPYfwLs7gnMlUmzmh1kW-67" style="edgeStyle=orthogonalEdgeStyle;rounded=0;orthogonalLoop=1;jettySize=auto;html=1;" edge="1" parent="1" source="cPYfwLs7gnMlUmzmh1kW-58" target="cPYfwLs7gnMlUmzmh1kW-64">
          <mxGeometry relative="1" as="geometry">
            <mxPoint x="1530" y="510" as="targetPoint" />
          </mxGeometry>
        </mxCell>
        <mxCell id="cPYfwLs7gnMlUmzmh1kW-58" value="-Значительный-&lt;div&gt;Потеря данных&lt;/div&gt;" style="whiteSpace=wrap;html=1;fontSize=13;fontFamily=Verdana;fillColor=#ffe6cc;strokeColor=#d79b00;fontStyle=2;" vertex="1" parent="1">
          <mxGeometry x="1260" y="480" width="120" height="60" as="geometry" />
        </mxCell>
        <mxCell id="cPYfwLs7gnMlUmzmh1kW-69" style="edgeStyle=orthogonalEdgeStyle;rounded=0;orthogonalLoop=1;jettySize=auto;html=1;" edge="1" parent="1" source="cPYfwLs7gnMlUmzmh1kW-59" target="cPYfwLs7gnMlUmzmh1kW-68">
          <mxGeometry relative="1" as="geometry" />
        </mxCell>
        <mxCell id="cPYfwLs7gnMlUmzmh1kW-59" value="-Незначительный-&lt;div&gt;Искажение данных&lt;/div&gt;" style="whiteSpace=wrap;html=1;fontSize=13;fontFamily=Verdana;fillColor=#fff2cc;strokeColor=#d6b656;fontStyle=2;" vertex="1" parent="1">
          <mxGeometry x="1260" y="330" width="120" height="60" as="geometry" />
        </mxCell>
        <mxCell id="cPYfwLs7gnMlUmzmh1kW-62" value="Приводит к рискам некорректной оценки состояния систем, которые влияют на принятие своевременных решений для выполнения действий ограничивающего характера" style="whiteSpace=wrap;html=1;fontSize=10;fontFamily=Verdana;fontStyle=0;" vertex="1" parent="1">
          <mxGeometry x="1530" y="780" width="350" height="60" as="geometry" />
        </mxCell>
        <mxCell id="cPYfwLs7gnMlUmzmh1kW-64" value="Несет репутационные риски управляющим компаниям, которые могут привести к дополнительным финансовым потерям" style="whiteSpace=wrap;html=1;fontSize=10;fontFamily=Verdana;fontStyle=0;" vertex="1" parent="1">
          <mxGeometry x="1530" y="555" width="350" height="60" as="geometry" />
        </mxCell>
        <mxCell id="cPYfwLs7gnMlUmzmh1kW-68" value="Данные являются доступными для отслеживания со внешних ресурсов, но для их внутреннего хранения требуются дополнительные инструменты защиты" style="whiteSpace=wrap;html=1;fontSize=10;fontFamily=Verdana;fontStyle=0;" vertex="1" parent="1">
          <mxGeometry x="1530" y="330" width="350" height="60" as="geometry" />
        </mxCell>
      </root>
    </mxGraphModel>
  </diagram>
</mxfile>
